<svg width="15" height="15" viewBox="0 0 15 15" fill="none" xmlns="http://www.w3.org/2000/svg">
<path d="M7.50008 0.416672C3.59008 0.416672 0.416748 3.59001 0.416748 7.50001C0.416748 11.41 3.59008 14.5833 7.50008 14.5833C11.4101 14.5833 14.5834 11.41 14.5834 7.50001C14.5834 3.59001 11.4101 0.416672 7.50008 0.416672ZM10.7867 5.23334C10.6805 6.35251 10.2201 9.0725 9.98633 10.3263C9.88717 10.8575 9.68883 11.0346 9.50467 11.0558C9.09383 11.0913 8.78217 10.7867 8.3855 10.5246C7.76217 10.1138 7.408 9.85876 6.80592 9.46209C6.10467 9.00167 6.558 8.74667 6.96175 8.33584C7.068 8.22959 8.88133 6.57917 8.91675 6.43042C8.92167 6.40789 8.92101 6.3845 8.91484 6.36228C8.90867 6.34006 8.89717 6.31969 8.88133 6.30292C8.83883 6.26751 8.78216 6.28167 8.73258 6.28876C8.66883 6.30292 7.67717 6.96167 5.74342 8.26501C5.46008 8.45626 5.20508 8.55542 4.97841 8.54834C4.72341 8.54125 4.24175 8.40667 3.8805 8.28626C3.43425 8.14459 3.08716 8.06667 3.1155 7.81876C3.12966 7.69126 3.30675 7.56376 3.63967 7.42917C5.708 6.52959 7.08217 5.93459 7.76925 5.65126C9.73842 4.82959 10.1422 4.68792 10.4113 4.68792C10.468 4.68792 10.6026 4.70209 10.6876 4.77292C10.7584 4.82959 10.7797 4.90751 10.7867 4.96417C10.7797 5.00667 10.7938 5.13417 10.7867 5.23334Z" fill="black"/>
</svg>
