<svg width="15" height="15" viewBox="0 0 15 15" fill="none" xmlns="http://www.w3.org/2000/svg">
<path d="M9.67679 0.416672H5.33046C1.36096 0.416672 0.416748 1.36088 0.416748 5.3233V9.66963C0.416748 13.6384 1.35387 14.5833 5.32337 14.5833H9.66971C13.6385 14.5833 14.5834 13.6462 14.5834 9.67671V5.33038C14.5834 1.36088 13.6463 0.416672 9.67679 0.416672ZM11.8535 10.5246H10.82C10.429 10.5246 10.3115 10.208 9.61021 9.50671C8.99821 8.91667 8.73967 8.84301 8.58454 8.84301C8.37062 8.84301 8.31183 8.9018 8.31183 9.19717V10.1265C8.31183 10.378 8.23037 10.5253 7.57375 10.5253C6.93649 10.4825 6.31853 10.2889 5.77076 9.96042C5.22298 9.63198 4.76108 9.1781 4.42308 8.63617C3.62066 7.63742 3.06233 6.46522 2.7925 5.2128C2.7925 5.05767 2.85129 4.91742 3.14666 4.91742H4.17941C4.44504 4.91742 4.54066 5.03571 4.64479 5.30842C5.14629 6.78459 6.00196 8.06809 6.34904 8.06809C6.48221 8.06809 6.54029 8.0093 6.54029 7.67709V6.157C6.49637 5.46355 6.12804 5.40475 6.12804 5.154C6.13277 5.08787 6.16308 5.02617 6.21254 4.98201C6.26199 4.93784 6.32671 4.91467 6.39296 4.91742H8.01646C8.23816 4.91742 8.31183 5.02792 8.31183 5.29355V7.34488C8.31183 7.56659 8.40746 7.64025 8.47404 7.64025C8.60721 7.64025 8.70991 7.56659 8.95358 7.32292C9.47694 6.68468 9.90454 5.9736 10.2229 5.21209C10.2555 5.12062 10.317 5.0423 10.3982 4.9891C10.4795 4.9359 10.5758 4.91072 10.6727 4.91742H11.7062C12.0157 4.91742 12.0816 5.07255 12.0157 5.29355C11.6399 6.13535 11.175 6.93443 10.6288 7.67709C10.5176 7.84709 10.473 7.93563 10.6288 8.13467C10.7315 8.2898 11.0935 8.59225 11.3371 8.87984C11.6912 9.23304 11.9853 9.6417 12.2077 10.0897C12.2962 10.3773 12.1482 10.5246 11.8535 10.5246Z" fill="black"/>
</svg>
