<svg width="19" height="16" viewBox="0 0 19 16" fill="none" xmlns="http://www.w3.org/2000/svg">
<path fill-rule="evenodd" clip-rule="evenodd" d="M7.53825 10.4216V4.33836L12.6711 7.39081L7.53825 10.4216ZM18.81 3.28516C18.81 3.28516 18.6247 1.7925 18.0547 1.13546C17.3327 0.273854 16.5224 0.269524 16.1509 0.21865C13.4928 1.45165e-07 9.5038 0 9.5038 0H9.4962C9.4962 0 5.5081 1.45165e-07 2.84905 0.21865C2.4776 0.269524 1.6682 0.272771 0.94525 1.13546C0.37525 1.7925 0.19 3.28516 0.19 3.28516C0.19 3.28516 0 5.03653 0 6.78898V8.43102C0 10.1824 0.19 11.9348 0.19 11.9348C0.19 11.9348 0.37525 13.4264 0.94525 14.0834C1.66725 14.9461 2.61725 14.918 3.04 15.0089C4.56 15.1745 9.5 15.2254 9.5 15.2254C9.5 15.2254 13.4928 15.2189 16.1509 15.0003C16.5224 14.9494 17.3327 14.9461 18.0547 14.0834C18.6247 13.4264 18.81 11.9348 18.81 11.9348C18.81 11.9348 19 10.1824 19 8.43102V6.78898C19 5.03653 18.81 3.28516 18.81 3.28516Z" fill="black"/>
</svg>
