<svg width="12" height="13" viewBox="0 0 12 13" fill="none" xmlns="http://www.w3.org/2000/svg">
<path d="M6 0C4.81331 0 3.65328 0.371283 2.66658 1.0669C1.67989 1.76251 0.910851 2.75122 0.456725 3.90798C0.0025996 5.06475 -0.11622 6.33762 0.115291 7.56564C0.346802 8.79365 0.918247 9.92166 1.75736 10.807C2.59648 11.6924 3.66557 12.2953 4.82946 12.5396C5.99335 12.7838 7.19975 12.6585 8.2961 12.1793C9.39246 11.7002 10.3295 10.8888 10.9888 9.84769C11.6481 8.80663 12 7.58267 12 6.3306C11.9981 4.65223 11.3654 3.04316 10.2406 1.85637C9.11577 0.669576 7.59073 0.00197108 6 0ZM6 11.9164C4.95292 11.9164 3.92936 11.5888 3.05875 10.975C2.18814 10.3613 1.50957 9.48888 1.10888 8.4682C0.708176 7.44753 0.603335 6.3244 0.80761 5.24086C1.01188 4.15732 1.5161 3.16202 2.2565 2.38083C2.99689 1.59963 3.94021 1.06764 4.96717 0.852106C5.99413 0.636576 7.0586 0.747194 8.02597 1.16997C8.99335 1.59275 9.82017 2.3087 10.4019 3.22728C10.9836 4.14587 11.2941 5.22583 11.2941 6.3306C11.2926 7.81155 10.7343 9.23137 9.74179 10.2786C8.74929 11.3257 7.40361 11.9148 6 11.9164ZM4 6.3306C4 6.77349 4.13208 7.20516 4.37752 7.56446C4.62296 7.92375 4.96932 8.19246 5.36755 8.33251C5.76577 8.47257 6.19567 8.47687 6.59634 8.34481C6.99701 8.21276 7.34814 7.95103 7.6 7.59672C7.65624 7.51771 7.73993 7.46551 7.83265 7.4516C7.92537 7.43769 8.01953 7.46321 8.09441 7.52255C8.1693 7.58189 8.21877 7.67019 8.23196 7.76802C8.24514 7.86585 8.22095 7.9652 8.16471 8.04421C7.82387 8.52342 7.34878 8.87736 6.80672 9.05589C6.26466 9.23442 5.68311 9.22849 5.14442 9.03895C4.60573 8.8494 4.13721 8.48585 3.80521 7.99978C3.47321 7.5137 3.29456 6.92974 3.29456 6.3306C3.29456 5.73146 3.47321 5.1475 3.80521 4.66142C4.13721 4.17535 4.60573 3.8118 5.14442 3.62225C5.68311 3.43271 6.26466 3.42678 6.80672 3.60531C7.34878 3.78384 7.82387 4.13778 8.16471 4.61699C8.22095 4.696 8.24514 4.79535 8.23196 4.89318C8.21877 4.99101 8.1693 5.07931 8.09441 5.13865C8.01953 5.19799 7.92537 5.22351 7.83265 5.2096C7.73993 5.19569 7.65624 5.14349 7.6 5.06448C7.34814 4.71016 6.99701 4.44844 6.59634 4.31639C6.19567 4.18433 5.76577 4.18863 5.36755 4.32869C4.96932 4.46874 4.62296 4.73745 4.37752 5.09674C4.13208 5.45604 4 5.88771 4 6.3306Z" fill="#868686"/>
</svg>
