<svg width="18" height="21" viewBox="0 0 18 21" fill="none" xmlns="http://www.w3.org/2000/svg">
<path fill-rule="evenodd" clip-rule="evenodd" d="M9 0.940399C4.02975 0.940399 0 4.78394 0 9.1018C0 13.3861 2.87212 18.0429 7.35412 19.8307C7.86928 20.0366 8.43116 20.1433 9 20.1433C9.56884 20.1433 10.1307 20.0366 10.6459 19.8307C15.1279 18.0429 18 13.3861 18 9.1018C18 4.78394 13.9703 0.940399 9 0.940399ZM9 10.542C9.59674 10.542 10.169 10.3397 10.591 9.9796C11.0129 9.61946 11.25 9.13102 11.25 8.62172C11.25 8.11241 11.0129 7.62397 10.591 7.26384C10.169 6.90371 9.59674 6.70139 9 6.70139C8.40326 6.70139 7.83097 6.90371 7.40901 7.26384C6.98705 7.62397 6.75 8.11241 6.75 8.62172C6.75 9.13102 6.98705 9.61946 7.40901 9.9796C7.83097 10.3397 8.40326 10.542 9 10.542Z" fill="#868686"/>
</svg>
