<svg width="8" height="8" viewBox="0 0 8 8" fill="none" xmlns="http://www.w3.org/2000/svg">
<path d="M6.41001 5.08666L5.56335 4.98999C5.46379 4.9783 5.36288 4.98932 5.2682 5.02223C5.17352 5.05514 5.08752 5.10908 5.01668 5.17999L4.40335 5.79333C3.45708 5.31207 2.68794 4.54293 2.20668 3.59666L2.82335 2.97999C2.96668 2.83666 3.03668 2.63666 3.01335 2.43333L2.91668 1.59333C2.89778 1.43072 2.81974 1.28074 2.69743 1.17194C2.57511 1.06315 2.41705 1.00313 2.25335 1.00333H1.67668C1.30001 1.00333 0.98668 1.31666 1.01001 1.69333C1.18668 4.53999 3.46335 6.81333 6.30668 6.98999C6.68335 7.01333 6.99668 6.69999 6.99668 6.32333V5.74666C7.00001 5.40999 6.74668 5.12666 6.41001 5.08666Z" fill="#868686"/>
</svg>
